# xmcd
#
# Track frame offsets:
#	150
#	12900
#	26767
#	40620
#	53090
#	65935
#	77275
#	89625
#	103105
#	115435
#	131280
#	145485
#	160965
#	175865
#	186695
#
# Disc length: 2616 seconds
#
# Revision: 1
# Processed by: cddbd v1.5.2PL0 Copyright (c) Steve Scherf et al.
# Submitted via: audiograbber 1.83.01
#
DISCID=d30a360f
DTITLE=LÁZARO DO PIAUÍ - O RITMO QUENTE DE
DYEAR=1900
DGENRE=FORRÓ
TTITLE0=FUNGANDO NO FORRÓ
TTITLE1=PRA VOCÊ, ROSA
TTITLE2=MORENINHA
TTITLE3=DEPOIS DE VOCÊ
TTITLE4=MELÔ DO ITAMAR
TTITLE5=NÃO EXISTE EX
TTITLE6=MORENA FULÔ CHEIROSA
TTITLE7=DEIXA O AMOR ENTRAR
TTITLE8=SÃO JOÃO SÓ
TTITLE9=MORENA
TTITLE10=AGORA É TARDE
TTITLE11=FORRÓ DO REMELEXO
TTITLE12=DANÇANDO LAMBADA
TTITLE13=ENGANO TOTAL
TTITLE14=FESTANÇA
EXTD=
EXTT0=
EXTT1=
EXTT2=
EXTT3=
EXTT4=
EXTT5=
EXTT6=
EXTT7=
EXTT8=
EXTT9=
EXTT10=
EXTT11=
EXTT12=
EXTT13=
EXTT14=
PLAYORDER=
